HIERARCHY
ROOT Hips
{
  OFFSET 47.4081 95.5856 16.1344
  CHANNELS 6 Xposition Yposition Zposition Zrotation Xrotation Yrotation
  JOINT spine
  {
    OFFSET 0 7.96568 0.458067
    CHANNELS 3 Zrotation Xrotation Yrotation
    JOINT spine1
    {
      OFFSET 0 10.2431 0
      CHANNELS 3 Zrotation Xrotation Yrotation
      JOINT spine2
      {
        OFFSET 0 9.81475 0
        CHANNELS 3 Zrotation Xrotation Yrotation
        JOINT Neck
        {
          OFFSET 0 25.1986 1.20138
          CHANNELS 3 Zrotation Xrotation Yrotation
          JOINT Head
          {
            OFFSET 0 7.61315 0
            CHANNELS 3 Zrotation Xrotation Yrotation
            End Site
            {
              OFFSET 0 18.4281 -6.07733
            }
          }
        }
        JOINT RightShoulder
        {
          OFFSET -4.1327 10.5992 -0.575451
          CHANNELS 3 Zrotation Xrotation Yrotation
          JOINT RightArm
          {
            OFFSET 0 13.9018 0
            CHANNELS 3 Zrotation Xrotation Yrotation
            JOINT RightArmRoll
            {
              OFFSET 0 7.01788 0
              CHANNELS 3 Zrotation Xrotation Yrotation
              JOINT RightForeArm
              {
                OFFSET 0 20.4406 0
                CHANNELS 3 Zrotation Xrotation Yrotation
                JOINT RightForeArmRoll
                {
                  OFFSET 0 7.87515 0
                  CHANNELS 3 Zrotation Xrotation Yrotation
                  JOINT RightHand
                  {
                    OFFSET 0 15.8037 0
                    CHANNELS 3 Zrotation Xrotation Yrotation
                    End Site
                    {
                      OFFSET 0 0 0
                    }
                  }
                }
              }
            }
          }
        }
        JOINT LeftShoulder
        {
          OFFSET 4.1327 10.5992 -0.575451
          CHANNELS 3 Zrotation Xrotation Yrotation
          JOINT LeftArm
          {
            OFFSET 0 13.9018 0
            CHANNELS 3 Zrotation Xrotation Yrotation
            JOINT LeftArmRoll
            {
              OFFSET 0 7.01789 0
              CHANNELS 3 Zrotation Xrotation Yrotation
              JOINT LeftForeArm
              {
                OFFSET 0 20.4406 0
                CHANNELS 3 Zrotation Xrotation Yrotation
                JOINT LeftForeArmRoll
                {
                  OFFSET 0 7.87516 0
                  CHANNELS 3 Zrotation Xrotation Yrotation
                  JOINT LeftHand
                  {
                    OFFSET 0 15.8037 0
                    CHANNELS 3 Zrotation Xrotation Yrotation
                    End Site
                    {
                      OFFSET 0 0 0
                    }
                  }
                }
              }
            }
          }
        }
      }
    }
  }
  JOINT RightUpLeg
  {
    OFFSET -7.06048 -1.2947 -1.08609
    CHANNELS 3 Zrotation Xrotation Yrotation
    JOINT RightUpLegRoll
    {
      OFFSET 0 18.5308 0
      CHANNELS 3 Zrotation Xrotation Yrotation
      JOINT RightLeg
      {
        OFFSET 0 -22.9476 0
        CHANNELS 3 Zrotation Xrotation Yrotation
        JOINT RightLegRoll
        {
          OFFSET 0 23.0226 0
          CHANNELS 3 Zrotation Xrotation Yrotation
          JOINT RightFoot
          {
            OFFSET 0 19.1625 0
            CHANNELS 3 Zrotation Xrotation Yrotation
            JOINT RightToeBase
            {
              OFFSET 0 16.0188 0
              CHANNELS 3 Zrotation Xrotation Yrotation
              End Site
              {
                OFFSET 0.00678979 7.75782 -0.894207
              }
            }
          }
        }
      }
    }
  }
  JOINT LeftUpLeg
  {
    OFFSET 7.06048 -1.2947 -1.08609
    CHANNELS 3 Zrotation Xrotation Yrotation
    JOINT LeftUpLegRoll
    {
      OFFSET 0 18.5309 0
      CHANNELS 3 Zrotation Xrotation Yrotation
      JOINT LeftLeg
      {
        OFFSET 0 22.9475 0
        CHANNELS 3 Zrotation Xrotation Yrotation
        JOINT LeftLegRoll
        {
          OFFSET 0 23.2355 0
          CHANNELS 3 Zrotation Xrotation Yrotation
          JOINT LeftFoot
          {
            OFFSET 0 18.9496 0
            CHANNELS 3 Zrotation Xrotation Yrotation
            JOINT LeftToeBase
            {
              OFFSET 0 16.0188 0
              CHANNELS 3 Zrotation Xrotation Yrotation
              End Site
              {
                OFFSET -0.0304289 7.75782 -0.894207
              }
            }
          }
        }
      }
    }
  }
}
MOTION
Frames: 12
Frame Time: 0.00208333
50.0483 95.707 10.388 -1.11966 -1.87814 -1.01592 0.377541 -1.54418 -0.0845797 0.737368 0.913634 -0.234595 0.740493 2.55863 -0.246954 0.431773 13.8797 -0.986829 0.0651801 2.1683 -0.871524 66.7058 -2.25789 -2.14215 111.116 18.0756 17.1427 -1.19338e-006 5.9186e-008 1.09567e-005 3.65156 0.0475514 -0.0851655 -2.28055e-006 -4.65697e-008 -3.01234 8.02977 -4.95141 0.697663 -65.1496 -1.44786 1.56134 -115.479 20.1579 -20.6988 -1.11319e-014 -9.54166e-015 -0 6.7448 -0.0456001 -0.796868 6.47382e-006 1.50222e-006 3.07672 -8.03034 -4.95137 -0.697592 175.233 -2.67771 -1.58935 180 7.01514e-015 178.789 177.523 4.54872 179.585 1.13523e-006 -4.47681e-006 0.0498523 -18.7683 67.7955 19.3438 8.14644 25.535 -3.0816 -173.111 -0.958334 -0.364237 4.5067e-006 -1.99009e-005 -1.22023 -2.08499 -7.54404 0.091484 2.69008e-006 -6.75328e-007 -0.154007 20.2836 69.5599 -20.9524 -8.1393 25.3243 3.36184 
50.0527 95.7086 10.3813 -1.11626 -1.85285 -1.02915 0.377511 -1.54435 -0.0854725 0.739593 0.91331 -0.235811 0.742743 2.55831 -0.248215 0.386635 13.8093 -0.975086 0.100009 2.20387 -0.869393 66.6925 -2.2436 -2.13342 111.139 18.0712 17.1138 -1.19338e-006 5.9186e-008 1.09567e-005 3.66702 0.0641644 -0.0846974 -2.28055e-006 -4.65697e-008 -3.01234 8.02977 -4.95141 0.697663 -65.1561 -1.46701 1.57235 -115.469 20.1563 -20.6495 7.95139e-016 0 -0 6.67694 -0.0452827 -0.786625 6.47383e-006 1.50222e-006 3.07691 -8.03034 -4.95137 -0.697592 175.23 -2.63907 -1.58758 180 7.01514e-015 178.789 177.521 4.56034 179.585 1.13523e-006 -4.47681e-006 0.0497186 -18.7627 67.7888 19.3379 8.14695 25.5422 -3.07213 -173.112 -0.938215 -0.364129 4.5067e-006 -1.99009e-005 -1.22 -2.08854 -7.53215 0.0913794 2.69008e-006 -6.75328e-007 -0.153967 20.2764 69.5526 -20.9447 -8.13933 25.3248 3.36171 
50.0535 95.707 10.3682 -1.11297 -1.82789 -1.04263 0.377482 -1.5445 -0.086329 0.741933 0.913032 -0.236974 0.745109 2.55803 -0.249425 0.340597 13.7395 -0.963318 0.136198 2.23868 -0.867387 66.6788 -2.2289 -2.12445 111.163 18.0663 17.0845 -1.19338e-006 5.9186e-008 1.09567e-005 3.68303 0.0810505 -0.0842023 -2.28055e-006 -4.65697e-008 -3.01234 8.02977 -4.95141 0.697663 -65.1632 -1.48611 1.5834 -115.459 20.155 -20.6019 -1.59028e-015 6.36111e-015 -0 6.61093 -0.0449854 -0.77667 6.47383e-006 1.50222e-006 3.07709 -8.03034 -4.95137 -0.697592 175.227 -2.60188 -1.58601 180 7.01514e-015 178.789 177.519 4.57 179.586 1.13523e-006 -4.47681e-006 0.0495196 -18.7563 67.7811 19.3311 8.14746 25.5495 -3.06239 -173.114 -0.919374 -0.364253 4.5067e-006 -1.99009e-005 -1.2198 -2.09228 -7.51876 0.0912698 2.69008e-006 -6.75328e-007 -0.153908 20.2688 69.5448 -20.9366 -8.13936 25.3252 3.36164 
50.0427 95.7054 10.3736 -1.10977 -1.80317 -1.05628 0.377453 -1.54464 -0.08716 0.744354 0.912786 -0.2381 0.747555 2.55778 -0.250599 0.293939 13.6701 -0.951536 0.173337 2.27296 -0.865468 66.6649 -2.21393 -2.11532 111.186 18.061 17.0548 -1.19338e-006 5.9186e-008 1.09567e-005 3.69943 0.0981277 -0.0836884 -2.28055e-006 -4.65697e-008 -3.01234 8.02977 -4.95141 0.697663 -65.1707 -1.50518 1.59448 -115.447 20.1539 -20.5556 -7.95139e-016 0 -3.18055e-015 6.54619 -0.0447023 -0.766916 6.47383e-006 1.50222e-006 3.07726 -8.03034 -4.95137 -0.697592 175.224 -2.5657 -1.58458 180 7.01514e-015 178.79 177.517 4.57827 179.586 1.13523e-006 -4.47681e-006 0.049275 -18.7494 67.7727 19.3237 8.14799 25.557 -3.05246 -173.115 -0.901426 -0.36454 4.5067e-006 -1.99009e-005 -1.21961 -2.09614 -7.50432 0.0911566 2.69008e-006 -6.75328e-007 -0.153836 20.2609 69.5367 -20.9281 -8.13939 25.3257 3.36162 
50.0501 95.7058 10.3624 -1.1066 -1.77859 -1.07003 0.377426 -1.54477 -0.0879764 0.746821 0.912558 -0.239204 0.750047 2.55755 -0.251753 0.246938 13.6009 -0.93975 0.211019 2.30692 -0.863599 66.6509 -2.1988 -2.10609 111.21 18.0555 17.0251 -1.19338e-006 5.9186e-008 1.09567e-005 3.71606 0.115314 -0.0831637 -2.28055e-006 -4.65697e-008 -3.01234 8.02977 -4.95141 0.697663 -65.1785 -1.52423 1.60556 -115.435 20.1529 -20.51 3.53113e-031 -3.18055e-015 6.36111e-015 6.48219 -0.0444273 -0.757278 6.47382e-006 1.50222e-006 3.07742 -8.03034 -4.95137 -0.697592 175.22 -2.5301 -1.58323 180 7.01514e-015 178.79 177.515 4.58574 179.586 1.13523e-006 -4.47681e-006 0.0490044 -18.7422 67.764 19.316 8.14851 25.5646 -3.04242 -173.116 -0.88399 -0.36492 4.5067e-006 -1.99009e-005 -1.21944 -2.10008 -7.48928 0.0910414 2.69008e-006 -6.75328e-007 -0.153755 20.2528 69.5284 -20.9195 -8.13942 25.3261 3.36163 
50.0427 95.7043 10.3598 -1.10343 -1.75404 -1.08381 0.377398 -1.54489 -0.0887892 0.7493 0.912334 -0.240303 0.752551 2.55733 -0.252902 0.199874 13.5318 -0.927968 0.248835 2.34082 -0.861742 66.6368 -2.18362 -2.09683 111.233 18.05 16.9952 -1.19338e-006 5.9186e-008 1.09567e-005 3.73274 0.132528 -0.0826364 -2.28055e-006 -4.65697e-008 -3.01234 8.02977 -4.95141 0.697663 -65.1863 -1.54327 1.61665 -115.423 20.152 -20.4646 -1.03368e-014 0 -0 6.41837 -0.0441544 -0.747668 6.47382e-006 1.50222e-006 3.07757 -8.03034 -4.95137 -0.697592 175.217 -2.49464 -1.5819 180 7.01514e-015 178.79 177.513 4.59302 179.586 1.13523e-006 -4.47681e-006 0.0487272 -18.7349 67.7552 19.3082 8.14904 25.5722 -3.03236 -173.118 -0.866681 -0.365323 4.5067e-006 -1.99009e-005 -1.21927 -2.10403 -7.47408 0.0909257 2.69008e-006 -6.75328e-007 -0.153673 20.2447 69.52 -20.9108 -8.13944 25.3265 3.36164 
50.0377 95.7013 10.3466 -1.10022 -1.72942 -1.09753 0.37737 -1.54503 -0.0896093 0.751755 0.912102 -0.241413 0.755032 2.55709 -0.25406 0.153025 13.4626 -0.916201 0.286376 2.37486 -0.859861 66.6228 -2.16853 -2.08763 111.257 18.0445 16.9655 -1.19338e-006 5.9186e-008 1.09567e-005 3.74931 0.149687 -0.0821144 -2.28055e-006 -4.65697e-008 -3.01234 8.02977 -4.95141 0.697663 -65.194 -1.56232 1.62774 -115.411 20.1509 -20.4188 -3.18055e-015 -6.36111e-015 6.36111e-015 6.35418 -0.0438773 -0.738001 6.47382e-006 1.50222e-006 3.07773 -8.03034 -4.95137 -0.697592 175.214 -2.45889 -1.58053 180 7.01515e-015 178.79 177.511 4.6007 179.586 1.13523e-006 -4.47681e-006 0.048463 -18.7277 67.7466 19.3007 8.14956 25.5797 -3.02234 -173.119 -0.849117 -0.36568 4.5067e-006 -1.99009e-005 -1.2191 -2.10794 -7.45919 0.090811 2.69008e-006 -6.75328e-007 -0.153595 20.2367 69.5118 -20.9022 -8.13947 25.3269 3.36164 
50.0369 95.7007 10.3433 -1.09694 -1.70463 -1.11113 0.377342 -1.54517 -0.0904476 0.754153 0.911847 -0.242549 0.757455 2.55684 -0.255245 0.10667 13.3931 -0.904458 0.323234 2.40929 -0.857918 66.6089 -2.15363 -2.07854 111.28 18.0393 16.9359 -1.19338e-006 5.9186e-008 1.09567e-005 3.7656 0.16671 -0.0816059 -2.28055e-006 -4.65697e-008 -3.01234 8.02977 -4.95141 0.697663 -65.2013 -1.5814 1.63881 -115.399 20.1497 -20.3721 -7.95139e-015 0 6.36111e-015 6.28908 -0.0435902 -0.72819 6.47383e-006 1.50222e-006 3.0779 -8.03034 -4.95137 -0.697592 175.211 -2.42242 -1.57906 180 7.01515e-015 178.79 177.508 4.60936 179.587 1.13523e-006 -4.47681e-006 0.0482315 -18.721 67.7384 19.2935 8.15006 25.5872 -3.01246 -173.12 -0.830914 -0.365921 4.5067e-006 -1.99009e-005 -1.21891 -2.11177 -7.44505 0.0906989 2.69008e-006 -6.75328e-007 -0.153526 20.2289 69.5038 -20.8938 -8.1395 25.3273 3.3616 
50.0354 95.7017 10.3344 -1.09355 -1.67958 -1.12454 0.377312 -1.54532 -0.091315 0.756458 0.911555 -0.243728 0.759786 2.55654 -0.25647 0.0610878 13.3231 -0.892751 0.358999 2.44433 -0.855876 66.5953 -2.13906 -2.06964 111.304 18.0345 16.9067 -1.19338e-006 5.9186e-008 1.09567e-005 3.78144 0.183514 -0.0811189 -2.28055e-006 -4.65698e-008 -3.01234 8.02977 -4.95141 0.697663 -65.2082 -1.60051 1.64985 -115.389 20.1483 -20.324 1.43125e-014 3.18055e-015 3.18055e-015 6.22251 -0.0432869 -0.718148 6.47383e-006 1.50222e-006 3.07808 -8.03034 -4.95137 -0.697592 175.208 -2.3848 -1.57743 180 7.01515e-015 178.791 177.506 4.6196 179.587 1.13523e-006 -4.47681e-006 0.0480521 -18.7149 67.731 19.287 8.15056 25.5945 -3.0028 -173.122 -0.811689 -0.365975 4.5067e-006 -1.99009e-005 -1.2187 -2.11545 -7.43211 0.0905908 2.69008e-006 -6.75328e-007 -0.153473 20.2215 69.4961 -20.8859 -8.13953 25.3278 3.36152 
50.0297 95.7029 10.334 -1.09001 -1.65416 -1.13768 0.377281 -1.5455 -0.0922224 0.758637 0.911213 -0.244965 0.76199 2.5562 -0.257752 0.0165576 13.2524 -0.881088 0.393264 2.48021 -0.853698 66.5821 -2.12492 -2.06101 111.327 18.0304 16.878 -1.19338e-006 5.9186e-008 1.09567e-005 3.79667 0.200018 -0.0806616 -2.28055e-006 -4.65697e-008 -3.01234 8.02977 -4.95141 0.697663 -65.2144 -1.61968 1.66086 -115.379 20.1464 -20.2739 2.38542e-015 0 6.36111e-015 6.15393 -0.0429613 -0.70779 6.47382e-006 1.50222e-006 3.07829 -8.03034 -4.95137 -0.697592 175.204 -2.34558 -1.57559 180 7.01515e-015 178.791 177.504 4.63199 179.587 1.13523e-006 -4.47681e-006 0.0479445 -18.7096 67.7246 19.2814 8.15104 25.6015 -2.99343 -173.123 -0.79106 -0.365775 4.5067e-006 -1.99009e-005 -1.21845 -2.11893 -7.42083 0.0904883 2.69008e-006 -6.75328e-007 -0.153441 20.2145 69.489 -20.8784 -8.13956 25.3282 3.36136 
50.0254 95.7009 10.3248 -1.08628 -1.62827 -1.15047 0.377248 -1.5457 -0.0931807 0.760653 0.910807 -0.246277 0.764033 2.55579 -0.259105 -0.0266414 13.181 -0.869479 0.425617 2.51715 -0.851346 66.5693 -2.11134 -2.05271 111.351 18.0269 16.8499 -1.19338e-006 5.9186e-008 1.09567e-005 3.81111 0.216139 -0.0802419 -2.28055e-006 -4.65697e-008 -3.01234 8.02977 -4.95141 0.697663 -65.2197 -1.63892 1.67182 -115.371 20.144 -20.2214 3.97569e-015 0 6.36111e-015 6.08278 -0.0426074 -0.697029 6.47383e-006 1.50222e-006 3.07851 -8.03034 -4.95137 -0.697592 175.201 -2.30434 -1.57347 180 7.01515e-015 178.791 177.501 4.64714 179.587 1.13523e-006 -4.47681e-006 0.0479282 -18.7054 67.7195 19.277 8.15149 25.6083 -2.98444 -173.125 -0.768642 -0.365249 4.5067e-006 -1.99009e-005 -1.21817 -2.12216 -7.41165 0.0903929 2.69008e-006 -6.75328e-007 -0.153436 20.2082 69.4826 -20.8717 -8.1396 25.3288 3.36112 
50.0245 95.7 10.3166 -1.08232 -1.60181 -1.16285 0.377213 -1.54593 -0.0942009 0.762473 0.910324 -0.24768 0.765879 2.55531 -0.260545 -0.0682299 13.1085 -0.857936 0.455651 2.5554 -0.848784 66.557 -2.09844 -2.04482 111.374 18.0244 16.8225 -1.19338e-006 5.9186e-008 1.09567e-005 3.8246 0.231797 -0.079868 -2.28055e-006 -4.65697e-008 -3.01234 8.02977 -4.95141 0.697663 -65.2241 -1.65823 1.68273 -115.364 20.1411 -20.1658 -7.95139e-015 -9.54166e-015 3.18055e-015 6.00851 -0.0422192 -0.685778 6.47382e-006 1.50222e-006 3.07876 -8.03034 -4.95137 -0.697592 175.197 -2.26065 -1.57101 180 7.01515e-015 178.792 177.499 4.66564 179.587 1.13523e-006 -4.47681e-006 0.0480228 -18.7025 67.716 19.274 8.15193 25.6147 -2.9759 -173.128 -0.744052 -0.364329 4.5067e-006 -1.99009e-005 -1.21784 -2.12509 -7.40502 0.0903061 2.69008e-006 -6.75328e-007 -0.153464 20.2026 69.4769 -20.8657 -8.13964 25.3293 3.36076 
